<svg xmlns="http://www.w3.org/2000/svg" viewBox="0 0 256 256" role="img" aria-labelledby="title desc">
  <title id="title">SECourses Upscaler Pro Favicon</title>
  <desc id="desc">A framed image transforming from pixelated blocks into a sharp sparkle, representing video and image upscaling.</desc>
  <defs>
    <linearGradient id="bg" x1="28" y1="24" x2="220" y2="232" gradientUnits="userSpaceOnUse">
      <stop offset="0" stop-color="#312e81"/>
      <stop offset="0.52" stop-color="#0f4c81"/>
      <stop offset="1" stop-color="#0f766e"/>
    </linearGradient>
    <radialGradient id="glow" cx="0" cy="0" r="1" gradientUnits="userSpaceOnUse" gradientTransform="translate(182 74) rotate(135) scale(116 102)">
      <stop offset="0" stop-color="#67e8f9" stop-opacity="0.78"/>
      <stop offset="1" stop-color="#67e8f9" stop-opacity="0"/>
    </radialGradient>
    <linearGradient id="panel" x1="60" y1="58" x2="194" y2="196" gradientUnits="userSpaceOnUse">
      <stop offset="0" stop-color="#0f172a" stop-opacity="0.96"/>
      <stop offset="1" stop-color="#082f49" stop-opacity="0.9"/>
    </linearGradient>
    <linearGradient id="beam" x1="92" y1="164" x2="178" y2="90" gradientUnits="userSpaceOnUse">
      <stop offset="0" stop-color="#f59e0b"/>
      <stop offset="0.45" stop-color="#fb7185"/>
      <stop offset="1" stop-color="#67e8f9"/>
    </linearGradient>
    <filter id="softShadow" x="-20%" y="-20%" width="140%" height="140%">
      <feDropShadow dx="0" dy="8" stdDeviation="10" flood-color="#020617" flood-opacity="0.35"/>
    </filter>
  </defs>
  <rect x="16" y="16" width="224" height="224" rx="52" fill="url(#bg)"/>
  <rect x="16" y="16" width="224" height="224" rx="52" fill="url(#glow)"/>
  <g filter="url(#softShadow)">
    <rect x="50" y="50" width="156" height="156" rx="34" fill="url(#panel)" stroke="rgba(191,219,254,0.26)" stroke-width="3"/>
    <path d="M78 80h28v10H88v18H78V80Z" fill="#dbeafe" opacity="0.96"/>
    <path d="M178 148h-10v18h-18v10h28v-28Z" fill="#dbeafe" opacity="0.96"/>
    <path d="M150 80h28v28h-10V90h-18V80Z" fill="#dbeafe" opacity="0.96"/>
    <path d="M106 176H78v-28h10v18h18v10Z" fill="#dbeafe" opacity="0.96"/>
    <rect x="78" y="120" width="18" height="18" rx="4" fill="#f59e0b"/>
    <rect x="101" y="120" width="18" height="18" rx="4" fill="#fb7185"/>
    <rect x="78" y="143" width="18" height="18" rx="4" fill="#fb7185"/>
    <rect x="101" y="143" width="18" height="18" rx="4" fill="#fcd34d"/>
    <path d="M112 156c18-2 32-10 44-22 10-9 18-20 25-34" fill="none" stroke="url(#beam)" stroke-linecap="round" stroke-width="12"/>
    <path d="M130 166c18-2 33-10 47-23 9-8 16-17 22-29" fill="none" stroke="#e0f2fe" stroke-linecap="round" stroke-opacity="0.4" stroke-width="4"/>
    <path d="M179 75l7 23 23 7-23 7-7 23-7-23-23-7 23-7 7-23Z" fill="#67e8f9"/>
    <path d="M179 86l4 12 12 4-12 4-4 12-4-12-12-4 12-4 4-12Z" fill="#f8fafc"/>
    <circle cx="150" cy="122" r="7" fill="#f8fafc" opacity="0.9"/>
    <circle cx="161" cy="112" r="5" fill="#67e8f9" opacity="0.86"/>
    <circle cx="140" cy="133" r="4" fill="#c4b5fd" opacity="0.82"/>
  </g>
</svg>
